<?xml version="1.0" standalone="no"?>
<!DOCTYPE svg PUBLIC "-//W3C//DTD SVG 20010904//EN"
 "http://www.w3.org/TR/2001/REC-SVG-20010904/DTD/svg10.dtd">
<svg version="1.0" xmlns="http://www.w3.org/2000/svg"
 width="1250.000000pt" height="1250.000000pt" viewBox="0 0 1250.000000 1250.000000"
 preserveAspectRatio="xMidYMid meet">
<metadata>
Created by potrace 1.16, written by Peter Selinger 2001-2019
</metadata>
<g transform="translate(0.000000,1250.000000) scale(0.100000,-0.100000)"
fill="#000000" stroke="none">
<path d="M5584 10356 c-482 -647 -664 -885 -679 -886 -11 0 -505 70 -1098 156
-593 86 -1080 154 -1084 151 -3 -4 65 -491 151 -1084 86 -593 156 -1087 156
-1098 -1 -15 -238 -197 -885 -679 -487 -362 -885 -662 -885 -666 0 -4 398
-304 884 -666 648 -482 885 -664 885 -679 1 -11 -69 -505 -155 -1098 -86 -593
-154 -1080 -151 -1084 4 -3 491 65 1084 151 593 86 1087 156 1098 156 15 -1
196 -237 679 -885 362 -487 662 -885 666 -885 4 0 304 398 666 885 483 648
664 884 679 885 11 0 505 -70 1098 -156 593 -86 1080 -154 1084 -151 3 4 -65
492 -151 1084 -86 593 -156 1087 -155 1098 0 15 243 201 885 679 486 362 884
662 884 666 0 4 -398 304 -885 666 -647 482 -884 664 -885 679 0 11 70 505
156 1098 86 593 154 1080 151 1084 -4 3 -491 -65 -1084 -151 -593 -86 -1087
-156 -1098 -156 -15 1 -197 239 -679 886 -362 486 -662 884 -666 884 -4 0
-304 -398 -666 -884z"/>
</g>
</svg>
