<?xml version="1.0" standalone="no"?>
<!DOCTYPE svg PUBLIC "-//W3C//DTD SVG 20010904//EN"
 "http://www.w3.org/TR/2001/REC-SVG-20010904/DTD/svg10.dtd">
<svg version="1.0" xmlns="http://www.w3.org/2000/svg"
 width="1250.000000pt" height="1250.000000pt" viewBox="0 0 1250.000000 1250.000000"
 preserveAspectRatio="xMidYMid meet">
<metadata>
Created by potrace 1.11, written by Peter Selinger 2001-2013
</metadata>
<g transform="translate(0.000000,1250.000000) scale(0.100000,-0.100000)"
fill="#000000" stroke="none">
<path d="M5584 10356 c-363 -487 -666 -885 -674 -886 -8 0 -502 70 -1098 156
-595 86 -1085 154 -1089 151 -3 -4 65 -494 151 -1089 86 -596 156 -1090 156
-1098 -1 -8 -399 -311 -886 -674 -486 -362 -884 -662 -884 -666 0 -4 397 -304
882 -666 486 -362 885 -659 888 -661 2 -2 -67 -496 -155 -1098 -87 -603 -155
-1098 -152 -1102 4 -3 499 65 1102 152 602 88 1096 157 1098 155 2 -3 300
-402 662 -887 361 -486 661 -883 665 -883 4 0 304 397 665 883 362 485 660
884 662 887 2 2 496 -67 1098 -155 603 -87 1098 -155 1102 -152 3 4 -65 499
-152 1102 -88 602 -157 1096 -155 1098 3 2 402 299 888 661 485 362 882 662
882 666 0 4 -398 304 -884 666 -487 363 -885 666 -886 674 0 8 70 502 156
1098 86 595 154 1085 151 1089 -4 3 -494 -65 -1089 -151 -596 -86 -1090 -156
-1098 -156 -8 1 -311 399 -674 886 -362 486 -662 884 -666 884 -4 0 -304 -398
-666 -884z"/>
</g>
</svg>
